#N canvas 491 49 739 604 10;
#X obj 102 563 dac~ 1 2 3 4 5;
#N canvas 648 152 521 300 sr_17 0;
#X msg 213 121 1;
#X msg 252 122 0;
#X obj 117 187 readsf~;
#X obj 14 93 loadbang;
#X obj 135 55 route play stop;
#X obj 154 246 outlet;
#X obj 211 245 outlet;
#X obj 268 245 outlet;
#X obj 135 11 inlet;
#X obj 252 66 r stop_all;
#X obj 135 34 route sr_17;
#X msg 14 123 open ../audios/SHOWROOM_17.wav;
#X obj 50 251 outlet~;
#X obj 329 264 netsend -u -b;
#X obj 349 205 list prepend send;
#X obj 349 234 list trim;
#X obj 329 23 loadbang;
#X msg 329 47 connect localhost 9991;
#X obj 349 180 oscformat /audioInterface;
#X obj 349 159 symbol;
#X msg 349 139 eof_SHOWROOM_17.wav;
#X connect 0 0 2 0;
#X connect 0 0 5 0;
#X connect 1 0 2 0;
#X connect 1 0 6 0;
#X connect 1 0 11 0;
#X connect 2 0 12 0;
#X connect 2 1 7 0;
#X connect 2 1 11 0;
#X connect 2 1 20 0;
#X connect 3 0 11 0;
#X connect 4 0 0 0;
#X connect 4 1 1 0;
#X connect 8 0 10 0;
#X connect 9 0 1 0;
#X connect 10 0 4 0;
#X connect 11 0 2 0;
#X connect 14 0 15 0;
#X connect 15 0 13 0;
#X connect 16 0 17 0;
#X connect 17 0 13 0;
#X connect 18 0 14 0;
#X connect 19 0 18 0;
#X connect 20 0 19 0;
#X restore 207 22 pd sr_17;
#X obj 268 23 bng 15 250 50 0 empty empty empty 17 7 0 10 -262144 -1
-1;
#X obj 286 23 bng 15 250 50 0 empty empty empty 17 7 0 10 -262144 -1
-1;
#X obj 304 23 bng 15 250 50 0 empty empty empty 17 7 0 10 -262144 -1
-1;
#X obj 12 68 oscparse;
#X msg 12 27 listen 9990;
#X obj 12 89 list trim;
#X obj 12 8 loadbang;
#X obj 12 48 netreceive -u -b;
#X obj 12 131 s stop_all;
#X obj 12 110 route stopAll;
#N canvas 0 50 450 300 mix 0;
#X obj 189 115 inlet~;
#X obj 181 191 outlet~;
#X connect 0 0 1 0;
#X restore 56 298 pd mix;
#X obj 268 43 bng 15 250 50 0 empty empty empty 17 7 0 10 -262144 -1
-1;
#X obj 286 43 bng 15 250 50 0 empty empty empty 17 7 0 10 -262144 -1
-1;
#X obj 304 43 bng 15 250 50 0 empty empty empty 17 7 0 10 -262144 -1
-1;
#X obj 268 63 bng 15 250 50 0 empty empty empty 17 7 0 10 -262144 -1
-1;
#X obj 286 63 bng 15 250 50 0 empty empty empty 17 7 0 10 -262144 -1
-1;
#X obj 304 63 bng 15 250 50 0 empty empty empty 17 7 0 10 -262144 -1
-1;
#X obj 268 83 bng 15 250 50 0 empty empty empty 17 7 0 10 -262144 -1
-1;
#X obj 286 83 bng 15 250 50 0 empty empty empty 17 7 0 10 -262144 -1
-1;
#X obj 304 83 bng 15 250 50 0 empty empty empty 17 7 0 10 -262144 -1
-1;
#X obj 268 103 bng 15 250 50 0 empty empty empty 17 7 0 10 -262144
-1 -1;
#X obj 286 103 bng 15 250 50 0 empty empty empty 17 7 0 10 -262144
-1 -1;
#X obj 304 103 bng 15 250 50 0 empty empty empty 17 7 0 10 -262144
-1 -1;
#X obj 268 123 bng 15 250 50 0 empty empty empty 17 7 0 10 -262144
-1 -1;
#X obj 286 123 bng 15 250 50 0 empty empty empty 17 7 0 10 -262144
-1 -1;
#X obj 304 123 bng 15 250 50 0 empty empty empty 17 7 0 10 -262144
-1 -1;
#X obj 268 143 bng 15 250 50 0 empty empty empty 17 7 0 10 -262144
-1 -1;
#X obj 286 143 bng 15 250 50 0 empty empty empty 17 7 0 10 -262144
-1 -1;
#X obj 304 143 bng 15 250 50 0 empty empty empty 17 7 0 10 -262144
-1 -1;
#X obj 268 163 bng 15 250 50 0 empty empty empty 17 7 0 10 -262144
-1 -1;
#X obj 286 163 bng 15 250 50 0 empty empty empty 17 7 0 10 -262144
-1 -1;
#X obj 304 163 bng 15 250 50 0 empty empty empty 17 7 0 10 -262144
-1 -1;
#X obj 268 183 bng 15 250 50 0 empty empty empty 17 7 0 10 -262144
-1 -1;
#X obj 286 183 bng 15 250 50 0 empty empty empty 17 7 0 10 -262144
-1 -1;
#X obj 304 183 bng 15 250 50 0 empty empty empty 17 7 0 10 -262144
-1 -1;
#X obj 268 203 bng 15 250 50 0 empty empty empty 17 7 0 10 -262144
-1 -1;
#X obj 286 203 bng 15 250 50 0 empty empty empty 17 7 0 10 -262144
-1 -1;
#X obj 304 203 bng 15 250 50 0 empty empty empty 17 7 0 10 -262144
-1 -1;
#X obj 388 23 bng 15 250 50 0 empty empty empty 17 7 0 10 -262144 -1
-1;
#X obj 406 23 bng 15 250 50 0 empty empty empty 17 7 0 10 -262144 -1
-1;
#X obj 424 23 bng 15 250 50 0 empty empty empty 17 7 0 10 -262144 -1
-1;
#X obj 388 43 bng 15 250 50 0 empty empty empty 17 7 0 10 -262144 -1
-1;
#X obj 406 43 bng 15 250 50 0 empty empty empty 17 7 0 10 -262144 -1
-1;
#X obj 424 43 bng 15 250 50 0 empty empty empty 17 7 0 10 -262144 -1
-1;
#X obj 388 63 bng 15 250 50 0 empty empty empty 17 7 0 10 -262144 -1
-1;
#X obj 406 63 bng 15 250 50 0 empty empty empty 17 7 0 10 -262144 -1
-1;
#X obj 424 63 bng 15 250 50 0 empty empty empty 17 7 0 10 -262144 -1
-1;
#X obj 388 83 bng 15 250 50 0 empty empty empty 17 7 0 10 -262144 -1
-1;
#X obj 406 83 bng 15 250 50 0 empty empty empty 17 7 0 10 -262144 -1
-1;
#X obj 424 83 bng 15 250 50 0 empty empty empty 17 7 0 10 -262144 -1
-1;
#X obj 388 103 bng 15 250 50 0 empty empty empty 17 7 0 10 -262144
-1 -1;
#X obj 406 103 bng 15 250 50 0 empty empty empty 17 7 0 10 -262144
-1 -1;
#X obj 424 103 bng 15 250 50 0 empty empty empty 17 7 0 10 -262144
-1 -1;
#X obj 388 123 bng 15 250 50 0 empty empty empty 17 7 0 10 -262144
-1 -1;
#X obj 406 123 bng 15 250 50 0 empty empty empty 17 7 0 10 -262144
-1 -1;
#X obj 424 123 bng 15 250 50 0 empty empty empty 17 7 0 10 -262144
-1 -1;
#X obj 388 143 bng 15 250 50 0 empty empty empty 17 7 0 10 -262144
-1 -1;
#X obj 406 143 bng 15 250 50 0 empty empty empty 17 7 0 10 -262144
-1 -1;
#X obj 424 143 bng 15 250 50 0 empty empty empty 17 7 0 10 -262144
-1 -1;
#X obj 388 163 bng 15 250 50 0 empty empty empty 17 7 0 10 -262144
-1 -1;
#X obj 406 163 bng 15 250 50 0 empty empty empty 17 7 0 10 -262144
-1 -1;
#X obj 424 163 bng 15 250 50 0 empty empty empty 17 7 0 10 -262144
-1 -1;
#X obj 388 183 bng 15 250 50 0 empty empty empty 17 7 0 10 -262144
-1 -1;
#X obj 406 183 bng 15 250 50 0 empty empty empty 17 7 0 10 -262144
-1 -1;
#X obj 424 183 bng 15 250 50 0 empty empty empty 17 7 0 10 -262144
-1 -1;
#X obj 388 203 bng 15 250 50 0 empty empty empty 17 7 0 10 -262144
-1 -1;
#X obj 406 203 bng 15 250 50 0 empty empty empty 17 7 0 10 -262144
-1 -1;
#X obj 424 203 bng 15 250 50 0 empty empty empty 17 7 0 10 -262144
-1 -1;
#N canvas 648 152 521 300 sr_18 0;
#X msg 213 121 1;
#X msg 252 122 0;
#X obj 117 187 readsf~;
#X obj 14 93 loadbang;
#X obj 135 55 route play stop;
#X obj 154 246 outlet;
#X obj 211 245 outlet;
#X obj 268 245 outlet;
#X obj 135 11 inlet;
#X obj 252 66 r stop_all;
#X obj 50 251 outlet~;
#X obj 329 264 netsend -u -b;
#X obj 349 205 list prepend send;
#X obj 349 234 list trim;
#X obj 329 23 loadbang;
#X msg 329 47 connect localhost 9991;
#X obj 349 180 oscformat /audioInterface;
#X obj 135 34 route sr_18;
#X msg 14 122 open ../audios/SHOWROOM_18.wav;
#X msg 349 126 eof SHOWROOM_18.wav;
#X obj 365 152 symbol;
#X connect 0 0 2 0;
#X connect 0 0 5 0;
#X connect 1 0 2 0;
#X connect 1 0 6 0;
#X connect 1 0 18 0;
#X connect 2 0 10 0;
#X connect 2 1 7 0;
#X connect 2 1 18 0;
#X connect 2 1 19 0;
#X connect 3 0 18 0;
#X connect 4 0 0 0;
#X connect 4 1 1 0;
#X connect 8 0 17 0;
#X connect 9 0 1 0;
#X connect 12 0 13 0;
#X connect 13 0 11 0;
#X connect 14 0 15 0;
#X connect 15 0 11 0;
#X connect 16 0 12 0;
#X connect 17 0 4 0;
#X connect 18 0 2 0;
#X connect 19 0 20 0;
#X connect 20 0 16 0;
#X restore 327 22 pd sr_18;
#N canvas 648 152 521 300 sr_18_2 0;
#X msg 218 121 1;
#X msg 257 122 0;
#X obj 117 187 readsf~;
#X obj 9 91 loadbang;
#X obj 135 55 route play stop;
#X obj 154 246 outlet;
#X obj 211 245 outlet;
#X obj 268 245 outlet;
#X obj 135 11 inlet;
#X obj 252 66 r stop_all;
#X obj 50 251 outlet~;
#X obj 329 264 netsend -u -b;
#X obj 349 205 list prepend send;
#X obj 349 234 list trim;
#X obj 329 23 loadbang;
#X msg 329 47 connect localhost 9991;
#X obj 349 180 oscformat /audioInterface;
#X obj 135 33 route sr_18_2;
#X msg 9 121 open ../audios/SHOWROOM_18_2.wav;
#X msg 349 126 eof SHOWROOM_18_2.wav;
#X obj 365 152 symbol;
#X connect 0 0 2 0;
#X connect 0 0 5 0;
#X connect 1 0 2 0;
#X connect 1 0 6 0;
#X connect 1 0 18 0;
#X connect 2 0 10 0;
#X connect 2 1 7 0;
#X connect 2 1 18 0;
#X connect 2 1 19 0;
#X connect 3 0 18 0;
#X connect 4 0 0 0;
#X connect 4 1 1 0;
#X connect 8 0 17 0;
#X connect 9 0 1 0;
#X connect 12 0 13 0;
#X connect 13 0 11 0;
#X connect 14 0 15 0;
#X connect 15 0 11 0;
#X connect 16 0 12 0;
#X connect 17 0 4 0;
#X connect 18 0 2 0;
#X connect 19 0 20 0;
#X connect 20 0 16 0;
#X restore 207 42 pd sr_18_2;
#N canvas 648 152 521 300 sr_20 0;
#X msg 213 121 1;
#X msg 252 122 0;
#X obj 117 187 readsf~;
#X obj 14 93 loadbang;
#X obj 135 55 route play stop;
#X obj 154 246 outlet;
#X obj 211 245 outlet;
#X obj 268 245 outlet;
#X obj 135 11 inlet;
#X obj 252 66 r stop_all;
#X obj 50 251 outlet~;
#X obj 329 264 netsend -u -b;
#X obj 349 205 list prepend send;
#X obj 349 234 list trim;
#X obj 329 23 loadbang;
#X msg 329 47 connect localhost 9991;
#X obj 349 180 oscformat /audioInterface;
#X obj 135 34 route sr_20;
#X msg 14 123 open ../audios/SHOWROOM_20.wav;
#X msg 350 127 eof SHOWROOM_20.wav;
#X obj 365 152 symbol;
#X connect 0 0 2 0;
#X connect 0 0 5 0;
#X connect 1 0 2 0;
#X connect 1 0 6 0;
#X connect 1 0 18 0;
#X connect 2 0 10 0;
#X connect 2 1 7 0;
#X connect 2 1 18 0;
#X connect 2 1 19 0;
#X connect 3 0 18 0;
#X connect 4 0 0 0;
#X connect 4 1 1 0;
#X connect 8 0 17 0;
#X connect 9 0 1 0;
#X connect 12 0 13 0;
#X connect 13 0 11 0;
#X connect 14 0 15 0;
#X connect 15 0 11 0;
#X connect 16 0 12 0;
#X connect 17 0 4 0;
#X connect 18 0 2 0;
#X connect 19 0 20 0;
#X connect 20 0 16 0;
#X restore 327 42 pd sr_20;
#N canvas 648 152 521 300 sr_21 0;
#X msg 213 121 1;
#X msg 252 122 0;
#X obj 117 187 readsf~;
#X obj 14 93 loadbang;
#X obj 135 55 route play stop;
#X obj 154 246 outlet;
#X obj 211 245 outlet;
#X obj 268 245 outlet;
#X obj 135 11 inlet;
#X obj 252 66 r stop_all;
#X obj 50 251 outlet~;
#X obj 329 264 netsend -u -b;
#X obj 349 205 list prepend send;
#X obj 349 234 list trim;
#X obj 329 23 loadbang;
#X msg 329 47 connect localhost 9991;
#X obj 349 180 oscformat /audioInterface;
#X obj 135 33 route sr_21;
#X msg 15 123 open ../audios/SHOWROOM_21.wav;
#X msg 349 126 eof SHOWROOM_21.wav;
#X obj 365 152 symbol;
#X connect 0 0 2 0;
#X connect 0 0 5 0;
#X connect 1 0 2 0;
#X connect 1 0 6 0;
#X connect 1 0 18 0;
#X connect 2 0 10 0;
#X connect 2 1 7 0;
#X connect 2 1 18 0;
#X connect 2 1 19 0;
#X connect 3 0 18 0;
#X connect 4 0 0 0;
#X connect 4 1 1 0;
#X connect 8 0 17 0;
#X connect 9 0 1 0;
#X connect 12 0 13 0;
#X connect 13 0 11 0;
#X connect 14 0 15 0;
#X connect 15 0 11 0;
#X connect 16 0 12 0;
#X connect 17 0 4 0;
#X connect 18 0 2 0;
#X connect 19 0 20 0;
#X connect 20 0 16 0;
#X restore 206 62 pd sr_21;
#N canvas 648 152 521 300 sr_22 0;
#X msg 213 121 1;
#X msg 252 122 0;
#X obj 117 187 readsf~;
#X obj 14 93 loadbang;
#X obj 135 55 route play stop;
#X obj 154 246 outlet;
#X obj 211 245 outlet;
#X obj 268 245 outlet;
#X obj 135 11 inlet;
#X obj 252 66 r stop_all;
#X obj 50 251 outlet~;
#X obj 329 264 netsend -u -b;
#X obj 349 205 list prepend send;
#X obj 349 234 list trim;
#X obj 329 23 loadbang;
#X msg 329 47 connect localhost 9991;
#X obj 349 180 oscformat /audioInterface;
#X obj 135 34 route sr_22;
#X msg 14 123 open ../audios/SHOWROOM_22.wav;
#X msg 349 126 eof SHOWROOM_22.wav;
#X obj 365 152 symbol;
#X connect 0 0 2 0;
#X connect 0 0 5 0;
#X connect 1 0 2 0;
#X connect 1 0 6 0;
#X connect 1 0 18 0;
#X connect 2 0 10 0;
#X connect 2 1 7 0;
#X connect 2 1 18 0;
#X connect 2 1 19 0;
#X connect 3 0 18 0;
#X connect 4 0 0 0;
#X connect 4 1 1 0;
#X connect 8 0 17 0;
#X connect 9 0 1 0;
#X connect 12 0 13 0;
#X connect 13 0 11 0;
#X connect 14 0 15 0;
#X connect 15 0 11 0;
#X connect 16 0 12 0;
#X connect 17 0 4 0;
#X connect 18 0 2 0;
#X connect 19 0 20 0;
#X connect 20 0 16 0;
#X restore 327 62 pd sr_22;
#N canvas 648 152 521 300 sr_23 0;
#X msg 213 121 1;
#X msg 252 122 0;
#X obj 117 187 readsf~;
#X obj 14 93 loadbang;
#X obj 135 55 route play stop;
#X obj 154 246 outlet;
#X obj 211 245 outlet;
#X obj 268 245 outlet;
#X obj 135 11 inlet;
#X obj 252 66 r stop_all;
#X obj 50 251 outlet~;
#X obj 329 264 netsend -u -b;
#X obj 349 205 list prepend send;
#X obj 349 234 list trim;
#X obj 329 23 loadbang;
#X msg 329 47 connect localhost 9991;
#X obj 349 180 oscformat /audioInterface;
#X obj 135 34 route sr_23;
#X msg 14 123 open ../audios/SHOWROOM_23.wav;
#X msg 349 126 eof SHOWROOM_23.wav;
#X obj 365 152 symbol;
#X connect 0 0 2 0;
#X connect 0 0 5 0;
#X connect 1 0 2 0;
#X connect 1 0 6 0;
#X connect 1 0 18 0;
#X connect 2 0 10 0;
#X connect 2 1 7 0;
#X connect 2 1 18 0;
#X connect 2 1 19 0;
#X connect 3 0 18 0;
#X connect 4 0 0 0;
#X connect 4 1 1 0;
#X connect 8 0 17 0;
#X connect 9 0 1 0;
#X connect 12 0 13 0;
#X connect 13 0 11 0;
#X connect 14 0 15 0;
#X connect 15 0 11 0;
#X connect 16 0 12 0;
#X connect 17 0 4 0;
#X connect 18 0 2 0;
#X connect 19 0 20 0;
#X connect 20 0 16 0;
#X restore 207 82 pd sr_23;
#N canvas 648 152 521 300 sr_24 0;
#X msg 213 121 1;
#X msg 252 122 0;
#X obj 117 187 readsf~;
#X obj 14 93 loadbang;
#X obj 135 55 route play stop;
#X obj 154 246 outlet;
#X obj 211 245 outlet;
#X obj 268 245 outlet;
#X obj 135 11 inlet;
#X obj 252 66 r stop_all;
#X obj 50 251 outlet~;
#X obj 329 264 netsend -u -b;
#X obj 349 205 list prepend send;
#X obj 349 234 list trim;
#X obj 329 23 loadbang;
#X msg 329 47 connect localhost 9991;
#X obj 349 180 oscformat /audioInterface;
#X msg 14 123 open ../audios/SHOWROOM_24.wav;
#X obj 135 34 route sr_24;
#X msg 349 126 eof SHOWROOM_24.wav;
#X obj 365 152 symbol;
#X connect 0 0 2 0;
#X connect 0 0 5 0;
#X connect 1 0 2 0;
#X connect 1 0 6 0;
#X connect 1 0 17 0;
#X connect 2 0 10 0;
#X connect 2 1 7 0;
#X connect 2 1 17 0;
#X connect 2 1 19 0;
#X connect 3 0 17 0;
#X connect 4 0 0 0;
#X connect 4 1 1 0;
#X connect 8 0 18 0;
#X connect 9 0 1 0;
#X connect 12 0 13 0;
#X connect 13 0 11 0;
#X connect 14 0 15 0;
#X connect 15 0 11 0;
#X connect 16 0 12 0;
#X connect 17 0 2 0;
#X connect 18 0 4 0;
#X connect 19 0 20 0;
#X connect 20 0 16 0;
#X restore 327 82 pd sr_24;
#N canvas 648 152 521 300 sr_25 0;
#X msg 213 121 1;
#X msg 252 122 0;
#X obj 117 187 readsf~;
#X obj 14 93 loadbang;
#X obj 135 55 route play stop;
#X obj 154 246 outlet;
#X obj 211 245 outlet;
#X obj 268 245 outlet;
#X obj 135 11 inlet;
#X obj 252 66 r stop_all;
#X obj 50 251 outlet~;
#X obj 329 264 netsend -u -b;
#X obj 349 205 list prepend send;
#X obj 349 234 list trim;
#X obj 329 23 loadbang;
#X msg 329 47 connect localhost 9991;
#X obj 349 180 oscformat /audioInterface;
#X obj 135 34 route sr_25;
#X msg 14 123 open ../audios/SHOWROOM_25.wav;
#X msg 349 126 eof SHOWROOM_25.wav;
#X obj 365 152 symbol;
#X connect 0 0 2 0;
#X connect 0 0 5 0;
#X connect 1 0 2 0;
#X connect 1 0 6 0;
#X connect 1 0 18 0;
#X connect 2 0 10 0;
#X connect 2 1 7 0;
#X connect 2 1 18 0;
#X connect 2 1 19 0;
#X connect 3 0 18 0;
#X connect 4 0 0 0;
#X connect 4 1 1 0;
#X connect 8 0 17 0;
#X connect 9 0 1 0;
#X connect 12 0 13 0;
#X connect 13 0 11 0;
#X connect 14 0 15 0;
#X connect 15 0 11 0;
#X connect 16 0 12 0;
#X connect 17 0 4 0;
#X connect 18 0 2 0;
#X connect 19 0 20 0;
#X connect 20 0 16 0;
#X restore 207 102 pd sr_25;
#N canvas 648 152 521 300 sr_26 0;
#X msg 213 121 1;
#X msg 252 122 0;
#X obj 117 187 readsf~;
#X obj 14 93 loadbang;
#X obj 135 55 route play stop;
#X obj 154 246 outlet;
#X obj 211 245 outlet;
#X obj 268 245 outlet;
#X obj 135 11 inlet;
#X obj 252 66 r stop_all;
#X obj 50 251 outlet~;
#X obj 329 264 netsend -u -b;
#X obj 349 205 list prepend send;
#X obj 349 234 list trim;
#X obj 329 23 loadbang;
#X msg 329 47 connect localhost 9991;
#X obj 349 180 oscformat /audioInterface;
#X obj 135 34 route sr_26;
#X msg 14 122 open ../audios/SHOWROOM_26.wav;
#X msg 349 126 eof SHOWROOM_26.wav;
#X obj 365 152 symbol;
#X connect 0 0 2 0;
#X connect 0 0 5 0;
#X connect 1 0 2 0;
#X connect 1 0 6 0;
#X connect 1 0 18 0;
#X connect 2 0 10 0;
#X connect 2 1 7 0;
#X connect 2 1 18 0;
#X connect 2 1 19 0;
#X connect 3 0 18 0;
#X connect 4 0 0 0;
#X connect 4 1 1 0;
#X connect 8 0 17 0;
#X connect 9 0 1 0;
#X connect 12 0 13 0;
#X connect 13 0 11 0;
#X connect 14 0 15 0;
#X connect 15 0 11 0;
#X connect 16 0 12 0;
#X connect 17 0 4 0;
#X connect 18 0 2 0;
#X connect 19 0 20 0;
#X connect 20 0 16 0;
#X restore 327 102 pd sr_26;
#N canvas 648 152 521 300 sr_27 0;
#X msg 213 121 1;
#X msg 252 122 0;
#X obj 117 187 readsf~;
#X obj 14 93 loadbang;
#X obj 135 55 route play stop;
#X obj 154 246 outlet;
#X obj 211 245 outlet;
#X obj 268 245 outlet;
#X obj 135 11 inlet;
#X obj 252 66 r stop_all;
#X obj 50 251 outlet~;
#X obj 329 264 netsend -u -b;
#X obj 349 205 list prepend send;
#X obj 349 234 list trim;
#X obj 329 23 loadbang;
#X msg 329 47 connect localhost 9991;
#X obj 349 180 oscformat /audioInterface;
#X msg 14 123 open ../audios/SHOWROOM_27.wav;
#X obj 135 34 route sr_27;
#X msg 349 126 eof SHOWROOM_27.wav;
#X obj 365 152 symbol;
#X connect 0 0 2 0;
#X connect 0 0 5 0;
#X connect 1 0 2 0;
#X connect 1 0 6 0;
#X connect 1 0 17 0;
#X connect 2 0 10 0;
#X connect 2 1 7 0;
#X connect 2 1 17 0;
#X connect 2 1 19 0;
#X connect 3 0 17 0;
#X connect 4 0 0 0;
#X connect 4 1 1 0;
#X connect 8 0 18 0;
#X connect 9 0 1 0;
#X connect 12 0 13 0;
#X connect 13 0 11 0;
#X connect 14 0 15 0;
#X connect 15 0 11 0;
#X connect 16 0 12 0;
#X connect 17 0 2 0;
#X connect 18 0 4 0;
#X connect 19 0 20 0;
#X connect 20 0 16 0;
#X restore 207 122 pd sr_27;
#N canvas 648 152 521 300 sr_28 0;
#X msg 213 121 1;
#X msg 252 122 0;
#X obj 117 187 readsf~;
#X obj 14 93 loadbang;
#X obj 135 55 route play stop;
#X obj 154 246 outlet;
#X obj 211 245 outlet;
#X obj 268 245 outlet;
#X obj 135 11 inlet;
#X obj 252 66 r stop_all;
#X obj 50 251 outlet~;
#X obj 329 264 netsend -u -b;
#X obj 349 205 list prepend send;
#X obj 349 234 list trim;
#X obj 329 23 loadbang;
#X msg 329 47 connect localhost 9991;
#X obj 349 180 oscformat /audioInterface;
#X obj 135 35 route sr_28;
#X msg 14 123 open ../audios/SHOWROOM_28.wav;
#X msg 349 126 eof SHOWROOM_28.wav;
#X obj 365 152 symbol;
#X connect 0 0 2 0;
#X connect 0 0 5 0;
#X connect 1 0 2 0;
#X connect 1 0 6 0;
#X connect 1 0 18 0;
#X connect 2 0 10 0;
#X connect 2 1 7 0;
#X connect 2 1 18 0;
#X connect 2 1 19 0;
#X connect 3 0 18 0;
#X connect 4 0 0 0;
#X connect 4 1 1 0;
#X connect 8 0 17 0;
#X connect 9 0 1 0;
#X connect 12 0 13 0;
#X connect 13 0 11 0;
#X connect 14 0 15 0;
#X connect 15 0 11 0;
#X connect 16 0 12 0;
#X connect 17 0 4 0;
#X connect 18 0 2 0;
#X connect 19 0 20 0;
#X connect 20 0 16 0;
#X restore 327 122 pd sr_28;
#N canvas 648 152 521 300 sr_29 0;
#X msg 213 121 1;
#X msg 252 122 0;
#X obj 117 187 readsf~;
#X obj 14 93 loadbang;
#X obj 135 55 route play stop;
#X obj 154 246 outlet;
#X obj 211 245 outlet;
#X obj 268 245 outlet;
#X obj 135 11 inlet;
#X obj 252 66 r stop_all;
#X obj 50 251 outlet~;
#X obj 329 264 netsend -u -b;
#X obj 349 205 list prepend send;
#X obj 349 234 list trim;
#X obj 329 23 loadbang;
#X msg 329 47 connect localhost 9991;
#X obj 349 180 oscformat /audioInterface;
#X obj 135 34 route sr_29;
#X msg 14 123 open ../audios/SHOWROOM_29.wav;
#X msg 349 125 eof SHOWROOM_29.wav;
#X obj 365 152 symbol;
#X connect 0 0 2 0;
#X connect 0 0 5 0;
#X connect 1 0 2 0;
#X connect 1 0 6 0;
#X connect 1 0 18 0;
#X connect 2 0 10 0;
#X connect 2 1 7 0;
#X connect 2 1 18 0;
#X connect 2 1 19 0;
#X connect 3 0 18 0;
#X connect 4 0 0 0;
#X connect 4 1 1 0;
#X connect 8 0 17 0;
#X connect 9 0 1 0;
#X connect 12 0 13 0;
#X connect 13 0 11 0;
#X connect 14 0 15 0;
#X connect 15 0 11 0;
#X connect 16 0 12 0;
#X connect 17 0 4 0;
#X connect 18 0 2 0;
#X connect 19 0 20 0;
#X connect 20 0 16 0;
#X restore 207 142 pd sr_29;
#N canvas 648 152 521 300 sr_30 0;
#X msg 213 121 1;
#X msg 252 122 0;
#X obj 117 187 readsf~;
#X obj 14 93 loadbang;
#X obj 135 55 route play stop;
#X obj 154 246 outlet;
#X obj 211 245 outlet;
#X obj 268 245 outlet;
#X obj 135 11 inlet;
#X obj 252 66 r stop_all;
#X obj 50 251 outlet~;
#X obj 329 264 netsend -u -b;
#X obj 349 205 list prepend send;
#X obj 349 234 list trim;
#X obj 329 23 loadbang;
#X msg 329 47 connect localhost 9991;
#X obj 349 180 oscformat /audioInterface;
#X obj 135 34 route sr_30;
#X msg 14 123 open ../audios/SHOWROOM_30.wav;
#X msg 349 126 eof SHOWROOM_30.wav;
#X obj 365 152 symbol;
#X connect 0 0 2 0;
#X connect 0 0 5 0;
#X connect 1 0 2 0;
#X connect 1 0 6 0;
#X connect 1 0 18 0;
#X connect 2 0 10 0;
#X connect 2 1 7 0;
#X connect 2 1 18 0;
#X connect 2 1 19 0;
#X connect 3 0 18 0;
#X connect 4 0 0 0;
#X connect 4 1 1 0;
#X connect 8 0 17 0;
#X connect 9 0 1 0;
#X connect 12 0 13 0;
#X connect 13 0 11 0;
#X connect 14 0 15 0;
#X connect 15 0 11 0;
#X connect 16 0 12 0;
#X connect 17 0 4 0;
#X connect 18 0 2 0;
#X connect 19 0 20 0;
#X connect 20 0 16 0;
#X restore 327 142 pd sr_30;
#N canvas 648 152 521 300 sr_31 0;
#X msg 213 121 1;
#X msg 252 122 0;
#X obj 117 187 readsf~;
#X obj 14 93 loadbang;
#X obj 135 55 route play stop;
#X obj 154 246 outlet;
#X obj 211 245 outlet;
#X obj 268 245 outlet;
#X obj 135 11 inlet;
#X obj 252 66 r stop_all;
#X obj 50 251 outlet~;
#X obj 329 264 netsend -u -b;
#X obj 349 205 list prepend send;
#X obj 349 234 list trim;
#X obj 329 23 loadbang;
#X msg 329 47 connect localhost 9991;
#X obj 349 180 oscformat /audioInterface;
#X obj 135 34 route sr_31;
#X msg 14 123 open ../audios/SHOWROOM_31.wav;
#X msg 349 126 eof SHOWROOM_31.wav;
#X obj 365 152 symbol;
#X connect 0 0 2 0;
#X connect 0 0 5 0;
#X connect 1 0 2 0;
#X connect 1 0 6 0;
#X connect 1 0 18 0;
#X connect 2 0 10 0;
#X connect 2 1 7 0;
#X connect 2 1 18 0;
#X connect 2 1 19 0;
#X connect 3 0 18 0;
#X connect 4 0 0 0;
#X connect 4 1 1 0;
#X connect 8 0 17 0;
#X connect 9 0 1 0;
#X connect 12 0 13 0;
#X connect 13 0 11 0;
#X connect 14 0 15 0;
#X connect 15 0 11 0;
#X connect 16 0 12 0;
#X connect 17 0 4 0;
#X connect 18 0 2 0;
#X connect 19 0 20 0;
#X connect 20 0 16 0;
#X restore 207 162 pd sr_31;
#N canvas 648 152 521 300 sr_31_2 0;
#X msg 223 123 1;
#X msg 262 124 0;
#X obj 117 187 readsf~;
#X obj 14 93 loadbang;
#X obj 135 55 route play stop;
#X obj 154 246 outlet;
#X obj 211 245 outlet;
#X obj 268 245 outlet;
#X obj 135 11 inlet;
#X obj 252 66 r stop_all;
#X obj 50 251 outlet~;
#X obj 329 264 netsend -u -b;
#X obj 349 205 list prepend send;
#X obj 349 234 list trim;
#X obj 329 23 loadbang;
#X msg 329 47 connect localhost 9991;
#X obj 349 180 oscformat /audioInterface;
#X obj 134 34 route sr_31_2;
#X msg 14 123 open ../audios/SHOWROOM_31_2.wav;
#X msg 349 126 eof SHOWROOM_31_2.wav;
#X obj 365 152 symbol;
#X connect 0 0 2 0;
#X connect 0 0 5 0;
#X connect 1 0 2 0;
#X connect 1 0 6 0;
#X connect 1 0 18 0;
#X connect 2 0 10 0;
#X connect 2 1 7 0;
#X connect 2 1 18 0;
#X connect 2 1 19 0;
#X connect 3 0 18 0;
#X connect 4 0 0 0;
#X connect 4 1 1 0;
#X connect 8 0 17 0;
#X connect 9 0 1 0;
#X connect 12 0 13 0;
#X connect 13 0 11 0;
#X connect 14 0 15 0;
#X connect 15 0 11 0;
#X connect 16 0 12 0;
#X connect 17 0 4 0;
#X connect 18 0 2 0;
#X connect 19 0 20 0;
#X connect 20 0 16 0;
#X restore 327 162 pd sr_31_2;
#N canvas 648 152 521 300 sr_31_3 0;
#X msg 213 121 1;
#X msg 252 122 0;
#X obj 117 187 readsf~;
#X obj 14 93 loadbang;
#X obj 135 55 route play stop;
#X obj 154 246 outlet;
#X obj 211 245 outlet;
#X obj 268 245 outlet;
#X obj 135 11 inlet;
#X obj 252 66 r stop_all;
#X obj 50 251 outlet~;
#X obj 329 264 netsend -u -b;
#X obj 349 205 list prepend send;
#X obj 349 234 list trim;
#X obj 329 23 loadbang;
#X msg 329 47 connect localhost 9991;
#X obj 349 180 oscformat /audioInterface;
#X obj 135 34 route sr_31_3;
#X msg 14 123 open ../audios/SHOWROOM_31_3.wav;
#X msg 349 126 eof SHOWROOM_31_3.wav;
#X obj 365 152 symbol;
#X connect 0 0 2 0;
#X connect 0 0 5 0;
#X connect 1 0 2 0;
#X connect 1 0 6 0;
#X connect 1 0 18 0;
#X connect 2 0 10 0;
#X connect 2 1 7 0;
#X connect 2 1 18 0;
#X connect 2 1 19 0;
#X connect 3 0 18 0;
#X connect 4 0 0 0;
#X connect 4 1 1 0;
#X connect 8 0 17 0;
#X connect 9 0 1 0;
#X connect 12 0 13 0;
#X connect 13 0 11 0;
#X connect 14 0 15 0;
#X connect 15 0 11 0;
#X connect 16 0 12 0;
#X connect 17 0 4 0;
#X connect 18 0 2 0;
#X connect 19 0 20 0;
#X connect 20 0 16 0;
#X restore 207 182 pd sr_31_3;
#N canvas 648 152 521 300 sr_32 0;
#X msg 213 121 1;
#X msg 252 122 0;
#X obj 117 187 readsf~;
#X obj 14 93 loadbang;
#X obj 135 55 route play stop;
#X obj 154 246 outlet;
#X obj 211 245 outlet;
#X obj 268 245 outlet;
#X obj 135 11 inlet;
#X obj 252 66 r stop_all;
#X obj 50 251 outlet~;
#X obj 329 264 netsend -u -b;
#X obj 349 205 list prepend send;
#X obj 349 234 list trim;
#X obj 329 23 loadbang;
#X msg 329 47 connect localhost 9991;
#X obj 349 180 oscformat /audioInterface;
#X obj 135 34 route sr_32;
#X msg 15 123 open ../audios/SHOWROOM_32.wav;
#X msg 349 126 eof SHOWROOM_32.wav;
#X obj 365 152 symbol;
#X connect 0 0 2 0;
#X connect 0 0 5 0;
#X connect 1 0 2 0;
#X connect 1 0 6 0;
#X connect 1 0 18 0;
#X connect 2 0 10 0;
#X connect 2 1 7 0;
#X connect 2 1 18 0;
#X connect 2 1 19 0;
#X connect 3 0 18 0;
#X connect 4 0 0 0;
#X connect 4 1 1 0;
#X connect 8 0 17 0;
#X connect 9 0 1 0;
#X connect 12 0 13 0;
#X connect 13 0 11 0;
#X connect 14 0 15 0;
#X connect 15 0 11 0;
#X connect 16 0 12 0;
#X connect 17 0 4 0;
#X connect 18 0 2 0;
#X connect 19 0 20 0;
#X connect 20 0 16 0;
#X restore 327 182 pd sr_32;
#N canvas 648 152 521 300 sr_33 0;
#X msg 213 121 1;
#X msg 252 122 0;
#X obj 117 187 readsf~;
#X obj 14 93 loadbang;
#X obj 135 55 route play stop;
#X obj 154 246 outlet;
#X obj 211 245 outlet;
#X obj 268 245 outlet;
#X obj 135 11 inlet;
#X obj 252 66 r stop_all;
#X obj 50 251 outlet~;
#X obj 329 264 netsend -u -b;
#X obj 349 205 list prepend send;
#X obj 349 234 list trim;
#X obj 329 23 loadbang;
#X msg 329 47 connect localhost 9991;
#X obj 349 180 oscformat /audioInterface;
#X obj 135 34 route sr_33;
#X msg 14 123 open ../audios/SHOWROOM_33.wav;
#X msg 349 126 eof SHOWROOM_33.wav;
#X obj 365 152 symbol;
#X connect 0 0 2 0;
#X connect 0 0 5 0;
#X connect 1 0 2 0;
#X connect 1 0 6 0;
#X connect 1 0 18 0;
#X connect 2 0 10 0;
#X connect 2 1 7 0;
#X connect 2 1 18 0;
#X connect 2 1 19 0;
#X connect 3 0 18 0;
#X connect 4 0 0 0;
#X connect 4 1 1 0;
#X connect 8 0 17 0;
#X connect 9 0 1 0;
#X connect 12 0 13 0;
#X connect 13 0 11 0;
#X connect 14 0 15 0;
#X connect 15 0 11 0;
#X connect 16 0 12 0;
#X connect 17 0 4 0;
#X connect 18 0 2 0;
#X connect 19 0 20 0;
#X connect 20 0 16 0;
#X restore 208 202 pd sr_33;
#N canvas 648 152 521 300 sr_34 0;
#X msg 213 121 1;
#X msg 252 122 0;
#X obj 117 187 readsf~;
#X obj 14 93 loadbang;
#X obj 135 55 route play stop;
#X obj 154 246 outlet;
#X obj 211 245 outlet;
#X obj 268 245 outlet;
#X obj 135 11 inlet;
#X obj 252 66 r stop_all;
#X obj 50 251 outlet~;
#X obj 329 264 netsend -u -b;
#X obj 349 205 list prepend send;
#X obj 349 234 list trim;
#X obj 329 23 loadbang;
#X msg 329 47 connect localhost 9991;
#X obj 349 180 oscformat /audioInterface;
#X obj 135 34 route sr_34;
#X msg 14 123 open ../audios/SHOWROOM_34.wav;
#X msg 349 126 eof SHOWROOM_34.wav;
#X obj 365 152 symbol;
#X connect 0 0 2 0;
#X connect 0 0 5 0;
#X connect 1 0 2 0;
#X connect 1 0 6 0;
#X connect 1 0 18 0;
#X connect 2 0 10 0;
#X connect 2 1 7 0;
#X connect 2 1 18 0;
#X connect 2 1 19 0;
#X connect 3 0 18 0;
#X connect 4 0 0 0;
#X connect 4 1 1 0;
#X connect 8 0 17 0;
#X connect 9 0 1 0;
#X connect 12 0 13 0;
#X connect 13 0 11 0;
#X connect 14 0 15 0;
#X connect 15 0 11 0;
#X connect 16 0 12 0;
#X connect 17 0 4 0;
#X connect 18 0 2 0;
#X connect 19 0 20 0;
#X connect 20 0 16 0;
#X restore 327 202 pd sr_34;
#X obj 78 524 *~;
#X obj 108 524 *~;
#X obj 138 524 *~;
#X obj 168 524 *~;
#X obj 198 524 *~;
#X obj 194 387 vsl 15 75 0.01 1 1 1 empty empty empty 0 -9 0 10 -262144
-1 -1 0 1;
#X obj 214 387 vsl 15 75 0.01 1 1 1 empty empty empty 0 -9 0 10 -262144
-1 -1 5635 1;
#X obj 234 387 vsl 15 75 0.01 1 1 1 empty empty empty 0 -9 0 10 -262144
-1 -1 7400 1;
#X obj 254 387 vsl 15 75 0.01 1 1 1 empty empty empty 0 -9 0 10 -262144
-1 -1 5635 1;
#X obj 274 387 vsl 15 75 0.01 1 1 1 empty empty empty 0 -9 0 10 -262144
-1 -1 0 1;
#X obj 252 315 hsl 256 15 -100 100 0 0 empty empty empty -2 -8 0 10
-262144 -1 -1 12750 1;
#X msg 249 270 0;
#X msg 155 330 0.65;
#N canvas 0 50 941 548 distanciator 0;
#N canvas 237 164 333 211 mapToRange 0;
#X obj 47 122 expr $f4+($f5-$f4)*(($f1-$f2)/$f3-$f2);
#X obj 47 18 inlet;
#X obj 107 18 inlet;
#X obj 147 18 inlet;
#X obj 187 18 inlet;
#X obj 227 18 inlet;
#X floatatom 107 79 5 0 0 0 - - -;
#X floatatom 147 79 5 0 0 0 - - -;
#X floatatom 187 79 5 0 0 0 - - -;
#X floatatom 227 79 5 0 0 0 - - -;
#X obj 47 39 t f b;
#X floatatom 47 80 5 0 0 0 - - -;
#X obj 47 153 outlet;
#X connect 0 0 12 0;
#X connect 1 0 10 0;
#X connect 2 0 6 0;
#X connect 3 0 7 0;
#X connect 4 0 8 0;
#X connect 5 0 9 0;
#X connect 6 0 0 1;
#X connect 7 0 0 2;
#X connect 8 0 0 3;
#X connect 9 0 0 4;
#X connect 10 0 11 0;
#X connect 10 1 6 0;
#X connect 10 1 9 0;
#X connect 10 1 8 0;
#X connect 10 1 7 0;
#X connect 11 0 0 0;
#X restore 180 373 pd mapToRange;
#X obj 138 193 nbx 5 14 -1e+037 1e+037 0 1 empty empty empty 0 -8 0
10 -262144 -1 -1 -100 256;
#X obj 157 262 nbx 5 14 -1e+037 1e+037 0 1 empty empty empty 0 -8 0
10 -262144 -1 -1 100 256;
#X obj 236 333 nbx 5 14 -1e+037 1e+037 0 1 empty empty empty 0 -8 0
10 -262144 -1 -1 1 256;
#X obj 255 352 nbx 5 14 -1e+037 1e+037 0 1 empty empty empty 0 -8 0
10 -262144 -1 -1 0 256;
#X obj 608 114 nbx 5 14 -1e+037 1e+037 0 1 empty empty empty 0 -8 0
10 -262144 -1 -1 75 256;
#X obj 608 93 loadbang;
#X text 670 114 <- Dist.;
#X obj 157 219 -;
#X text 68 193 Pos. 1 ->;
#N canvas 237 164 333 211 mapToRange 0;
#X obj 47 122 expr $f4+($f5-$f4)*(($f1-$f2)/$f3-$f2);
#X obj 47 18 inlet;
#X obj 107 18 inlet;
#X obj 147 18 inlet;
#X obj 187 18 inlet;
#X obj 227 18 inlet;
#X floatatom 107 79 5 0 0 0 - - -;
#X floatatom 147 79 5 0 0 0 - - -;
#X floatatom 187 79 5 0 0 0 - - -;
#X floatatom 227 79 5 0 0 0 - - -;
#X obj 47 39 t f b;
#X floatatom 47 80 5 0 0 0 - - -;
#X obj 47 153 outlet;
#X connect 0 0 12 0;
#X connect 1 0 10 0;
#X connect 2 0 6 0;
#X connect 3 0 7 0;
#X connect 4 0 8 0;
#X connect 5 0 9 0;
#X connect 6 0 0 1;
#X connect 7 0 0 2;
#X connect 8 0 0 3;
#X connect 9 0 0 4;
#X connect 10 0 11 0;
#X connect 10 1 6 0;
#X connect 10 1 9 0;
#X connect 10 1 8 0;
#X connect 10 1 7 0;
#X connect 11 0 0 0;
#X restore 330 373 pd mapToRange;
#X obj 288 193 nbx 5 14 -1e+037 1e+037 0 1 empty empty empty 0 -8 0
10 -262144 -1 -1 -50 256;
#X obj 307 262 nbx 5 14 -1e+037 1e+037 0 1 empty empty empty 0 -8 0
10 -262144 -1 -1 50 256;
#X obj 386 333 nbx 5 14 -1e+037 1e+037 0 1 empty empty empty 0 -8 0
10 -262144 -1 -1 1 256;
#X obj 405 352 nbx 5 14 -1e+037 1e+037 0 1 empty empty empty 0 -8 0
10 -262144 -1 -1 0 256;
#X obj 307 219 -;
#N canvas 237 164 333 211 mapToRange 0;
#X obj 47 122 expr $f4+($f5-$f4)*(($f1-$f2)/$f3-$f2);
#X obj 47 18 inlet;
#X obj 107 18 inlet;
#X obj 147 18 inlet;
#X obj 187 18 inlet;
#X obj 227 18 inlet;
#X floatatom 107 79 5 0 0 0 - - -;
#X floatatom 147 79 5 0 0 0 - - -;
#X floatatom 187 79 5 0 0 0 - - -;
#X floatatom 227 79 5 0 0 0 - - -;
#X obj 47 39 t f b;
#X floatatom 47 80 5 0 0 0 - - -;
#X obj 47 153 outlet;
#X connect 0 0 12 0;
#X connect 1 0 10 0;
#X connect 2 0 6 0;
#X connect 3 0 7 0;
#X connect 4 0 8 0;
#X connect 5 0 9 0;
#X connect 6 0 0 1;
#X connect 7 0 0 2;
#X connect 8 0 0 3;
#X connect 9 0 0 4;
#X connect 10 0 11 0;
#X connect 10 1 6 0;
#X connect 10 1 9 0;
#X connect 10 1 8 0;
#X connect 10 1 7 0;
#X connect 11 0 0 0;
#X restore 480 373 pd mapToRange;
#X obj 438 193 nbx 5 14 -1e+037 1e+037 0 1 empty empty empty 0 -8 0
10 -262144 -1 -1 0 256;
#X obj 457 262 nbx 5 14 -1e+037 1e+037 0 1 empty empty empty 0 -8 0
10 -262144 -1 -1 0 256;
#X obj 536 333 nbx 5 14 -1e+037 1e+037 0 1 empty empty empty 0 -8 0
10 -262144 -1 -1 1 256;
#X obj 555 352 nbx 5 14 -1e+037 1e+037 0 1 empty empty empty 0 -8 0
10 -262144 -1 -1 0 256;
#X obj 457 219 -;
#N canvas 237 164 333 211 mapToRange 0;
#X obj 47 122 expr $f4+($f5-$f4)*(($f1-$f2)/$f3-$f2);
#X obj 47 18 inlet;
#X obj 107 18 inlet;
#X obj 147 18 inlet;
#X obj 187 18 inlet;
#X obj 227 18 inlet;
#X floatatom 107 79 5 0 0 0 - - -;
#X floatatom 147 79 5 0 0 0 - - -;
#X floatatom 187 79 5 0 0 0 - - -;
#X floatatom 227 79 5 0 0 0 - - -;
#X obj 47 39 t f b;
#X floatatom 47 80 5 0 0 0 - - -;
#X obj 47 153 outlet;
#X connect 0 0 12 0;
#X connect 1 0 10 0;
#X connect 2 0 6 0;
#X connect 3 0 7 0;
#X connect 4 0 8 0;
#X connect 5 0 9 0;
#X connect 6 0 0 1;
#X connect 7 0 0 2;
#X connect 8 0 0 3;
#X connect 9 0 0 4;
#X connect 10 0 11 0;
#X connect 10 1 6 0;
#X connect 10 1 9 0;
#X connect 10 1 8 0;
#X connect 10 1 7 0;
#X connect 11 0 0 0;
#X restore 630 373 pd mapToRange;
#X obj 588 193 nbx 5 14 -1e+037 1e+037 0 1 empty empty empty 0 -8 0
10 -262144 -1 -1 50 256;
#X obj 607 262 nbx 5 14 -1e+037 1e+037 0 1 empty empty empty 0 -8 0
10 -262144 -1 -1 50 256;
#X obj 686 333 nbx 5 14 -1e+037 1e+037 0 1 empty empty empty 0 -8 0
10 -262144 -1 -1 1 256;
#X obj 705 352 nbx 5 14 -1e+037 1e+037 0 1 empty empty empty 0 -8 0
10 -262144 -1 -1 0 256;
#X obj 607 219 -;
#N canvas 237 164 333 211 mapToRange 0;
#X obj 47 122 expr $f4+($f5-$f4)*(($f1-$f2)/$f3-$f2);
#X obj 47 18 inlet;
#X obj 107 18 inlet;
#X obj 147 18 inlet;
#X obj 187 18 inlet;
#X obj 227 18 inlet;
#X floatatom 107 79 5 0 0 0 - - -;
#X floatatom 147 79 5 0 0 0 - - -;
#X floatatom 187 79 5 0 0 0 - - -;
#X floatatom 227 79 5 0 0 0 - - -;
#X obj 47 39 t f b;
#X floatatom 47 80 5 0 0 0 - - -;
#X obj 47 153 outlet;
#X connect 0 0 12 0;
#X connect 1 0 10 0;
#X connect 2 0 6 0;
#X connect 3 0 7 0;
#X connect 4 0 8 0;
#X connect 5 0 9 0;
#X connect 6 0 0 1;
#X connect 7 0 0 2;
#X connect 8 0 0 3;
#X connect 9 0 0 4;
#X connect 10 0 11 0;
#X connect 10 1 6 0;
#X connect 10 1 9 0;
#X connect 10 1 8 0;
#X connect 10 1 7 0;
#X connect 11 0 0 0;
#X restore 780 373 pd mapToRange;
#X obj 738 193 nbx 5 14 -1e+037 1e+037 0 1 empty empty empty 0 -8 0
10 -262144 -1 -1 100 256;
#X obj 757 262 nbx 5 14 -1e+037 1e+037 0 1 empty empty empty 0 -8 0
10 -262144 -1 -1 100 256;
#X obj 836 333 nbx 5 14 -1e+037 1e+037 0 1 empty empty empty 0 -8 0
10 -262144 -1 -1 1 256;
#X obj 855 352 nbx 5 14 -1e+037 1e+037 0 1 empty empty empty 0 -8 0
10 -262144 -1 -1 0 256;
#X obj 757 219 -;
#X text 218 193 Pos. 2 ->;
#X text 368 193 Pos. 3 ->;
#X text 518 193 Pos. 4 ->;
#X text 668 193 Pos. 5 ->;
#X obj 157 241 abs;
#X obj 307 241 abs;
#X obj 457 241 abs;
#X obj 607 241 abs;
#X obj 757 241 abs;
#X obj 300 72 inlet;
#X obj 152 420 expr if($f1<0 \, 0 \, $f1);
#X obj 152 441 expr if($f1>1 \, 1 \, $f1);
#X obj 302 420 expr if($f1<0 \, 0 \, $f1);
#X obj 302 441 expr if($f1>1 \, 1 \, $f1);
#X obj 462 420 expr if($f1<0 \, 0 \, $f1);
#X obj 462 441 expr if($f1>1 \, 1 \, $f1);
#X obj 612 420 expr if($f1<0 \, 0 \, $f1);
#X obj 612 441 expr if($f1>1 \, 1 \, $f1);
#X obj 772 420 expr if($f1<0 \, 0 \, $f1);
#X obj 772 441 expr if($f1>1 \, 1 \, $f1);
#X text 339 72 <- char pos.;
#X obj 469 66 inlet;
#X text 508 66 <- min dist.;
#X obj 152 492 outlet;
#X obj 302 492 outlet;
#X obj 462 492 outlet;
#X obj 612 492 outlet;
#X obj 772 492 outlet;
#X obj 196 293 nbx 5 14 -1e+037 1e+037 0 1 empty empty empty 0 -8 0
10 -262144 -1 -1 0 256;
#X obj 215 312 nbx 5 14 -1e+037 1e+037 0 1 empty empty empty 0 -8 0
10 -262144 -1 -1 75 256;
#X obj 346 293 nbx 5 14 -1e+037 1e+037 0 1 empty empty empty 0 -8 0
10 -262144 -1 -1 0 256;
#X obj 365 312 nbx 5 14 -1e+037 1e+037 0 1 empty empty empty 0 -8 0
10 -262144 -1 -1 75 256;
#X obj 496 293 nbx 5 14 -1e+037 1e+037 0 1 empty empty empty 0 -8 0
10 -262144 -1 -1 0 256;
#X obj 515 312 nbx 5 14 -1e+037 1e+037 0 1 empty empty empty 0 -8 0
10 -262144 -1 -1 75 256;
#X obj 646 293 nbx 5 14 -1e+037 1e+037 0 1 empty empty empty 0 -8 0
10 -262144 -1 -1 0 256;
#X obj 665 312 nbx 5 14 -1e+037 1e+037 0 1 empty empty empty 0 -8 0
10 -262144 -1 -1 75 256;
#X obj 796 293 nbx 5 14 -1e+037 1e+037 0 1 empty empty empty 0 -8 0
10 -262144 -1 -1 0 256;
#X obj 815 312 nbx 5 14 -1e+037 1e+037 0 1 empty empty empty 0 -8 0
10 -262144 -1 -1 75 256;
#X obj 300 103 t b f;
#X obj 12 68 oscparse;
#X obj 12 89 list trim;
#X obj 12 8 loadbang;
#X obj 12 48 netreceive -u -b;
#X msg 12 27 listen 9994;
#X obj 12 110 route c1 c2 c3 c4 c5;
#X connect 0 0 44 0;
#X connect 1 0 8 0;
#X connect 2 0 0 0;
#X connect 3 0 0 3;
#X connect 4 0 0 4;
#X connect 5 0 63 0;
#X connect 5 0 65 0;
#X connect 5 0 67 0;
#X connect 5 0 69 0;
#X connect 5 0 71 0;
#X connect 6 0 5 0;
#X connect 6 0 62 0;
#X connect 6 0 71 0;
#X connect 6 0 70 0;
#X connect 6 0 32 0;
#X connect 6 0 31 0;
#X connect 6 0 69 0;
#X connect 6 0 68 0;
#X connect 6 0 26 0;
#X connect 6 0 25 0;
#X connect 6 0 67 0;
#X connect 6 0 66 0;
#X connect 6 0 20 0;
#X connect 6 0 19 0;
#X connect 6 0 65 0;
#X connect 6 0 64 0;
#X connect 6 0 14 0;
#X connect 6 0 13 0;
#X connect 6 0 63 0;
#X connect 6 0 4 0;
#X connect 6 0 3 0;
#X connect 8 0 38 0;
#X connect 10 0 46 0;
#X connect 11 0 15 0;
#X connect 12 0 10 0;
#X connect 13 0 10 3;
#X connect 14 0 10 4;
#X connect 15 0 39 0;
#X connect 16 0 48 0;
#X connect 17 0 21 0;
#X connect 18 0 16 0;
#X connect 19 0 16 3;
#X connect 20 0 16 4;
#X connect 21 0 40 0;
#X connect 22 0 50 0;
#X connect 23 0 27 0;
#X connect 24 0 22 0;
#X connect 25 0 22 3;
#X connect 26 0 22 4;
#X connect 27 0 41 0;
#X connect 28 0 52 0;
#X connect 29 0 33 0;
#X connect 30 0 28 0;
#X connect 31 0 28 3;
#X connect 32 0 28 4;
#X connect 33 0 42 0;
#X connect 38 0 2 0;
#X connect 39 0 12 0;
#X connect 40 0 18 0;
#X connect 41 0 24 0;
#X connect 42 0 30 0;
#X connect 43 0 72 0;
#X connect 44 0 45 0;
#X connect 45 0 57 0;
#X connect 46 0 47 0;
#X connect 47 0 58 0;
#X connect 48 0 49 0;
#X connect 49 0 59 0;
#X connect 50 0 51 0;
#X connect 51 0 60 0;
#X connect 52 0 53 0;
#X connect 53 0 61 0;
#X connect 55 0 5 0;
#X connect 62 0 0 1;
#X connect 63 0 0 2;
#X connect 64 0 10 1;
#X connect 65 0 10 2;
#X connect 66 0 16 1;
#X connect 67 0 16 2;
#X connect 68 0 22 1;
#X connect 69 0 22 2;
#X connect 70 0 28 1;
#X connect 71 0 28 2;
#X connect 72 0 1 0;
#X connect 72 0 11 0;
#X connect 72 0 17 0;
#X connect 72 0 23 0;
#X connect 72 0 29 0;
#X connect 72 1 8 1;
#X connect 72 1 15 1;
#X connect 72 1 21 1;
#X connect 72 1 27 1;
#X connect 72 1 33 1;
#X connect 73 0 74 0;
#X connect 74 0 78 0;
#X connect 75 0 77 0;
#X connect 76 0 73 0;
#X connect 77 0 76 0;
#X connect 78 0 1 0;
#X connect 78 1 11 0;
#X connect 78 2 17 0;
#X connect 78 3 23 0;
#X connect 78 4 29 0;
#X restore 249 341 pd distanciator;
#X obj 534 134 oscparse;
#X obj 534 155 list trim;
#X obj 534 74 loadbang;
#X obj 534 114 netreceive -u -b;
#X obj 534 176 route charPos;
#X msg 534 93 listen 9992;
#X connect 1 0 12 0;
#X connect 1 1 2 0;
#X connect 1 2 3 0;
#X connect 1 3 4 0;
#X connect 5 0 7 0;
#X connect 6 0 9 0;
#X connect 7 0 11 0;
#X connect 8 0 6 0;
#X connect 9 0 5 0;
#X connect 11 0 10 0;
#X connect 11 1 1 0;
#X connect 11 1 71 0;
#X connect 11 1 87 0;
#X connect 11 1 85 0;
#X connect 11 1 83 0;
#X connect 11 1 81 0;
#X connect 11 1 79 0;
#X connect 11 1 77 0;
#X connect 11 1 75 0;
#X connect 11 1 73 0;
#X connect 11 1 70 0;
#X connect 11 1 88 0;
#X connect 11 1 86 0;
#X connect 11 1 84 0;
#X connect 11 1 82 0;
#X connect 11 1 80 0;
#X connect 11 1 78 0;
#X connect 11 1 76 0;
#X connect 11 1 74 0;
#X connect 11 1 72 0;
#X connect 12 0 89 0;
#X connect 12 0 90 0;
#X connect 12 0 91 0;
#X connect 12 0 92 0;
#X connect 12 0 93 0;
#X connect 70 0 12 0;
#X connect 70 1 40 0;
#X connect 70 2 41 0;
#X connect 70 3 42 0;
#X connect 71 0 12 0;
#X connect 71 1 13 0;
#X connect 71 2 14 0;
#X connect 71 3 15 0;
#X connect 72 0 12 0;
#X connect 72 1 43 0;
#X connect 72 2 44 0;
#X connect 72 3 45 0;
#X connect 73 0 12 0;
#X connect 73 1 16 0;
#X connect 73 2 17 0;
#X connect 73 3 18 0;
#X connect 74 0 12 0;
#X connect 74 1 46 0;
#X connect 74 2 47 0;
#X connect 74 3 48 0;
#X connect 75 0 12 0;
#X connect 75 1 19 0;
#X connect 75 2 20 0;
#X connect 75 3 21 0;
#X connect 76 0 12 0;
#X connect 76 1 49 0;
#X connect 76 2 50 0;
#X connect 76 3 51 0;
#X connect 77 0 12 0;
#X connect 77 1 22 0;
#X connect 77 2 23 0;
#X connect 77 3 24 0;
#X connect 78 0 12 0;
#X connect 78 1 52 0;
#X connect 78 2 53 0;
#X connect 78 3 54 0;
#X connect 79 0 12 0;
#X connect 79 1 25 0;
#X connect 79 2 26 0;
#X connect 79 3 27 0;
#X connect 80 0 12 0;
#X connect 80 1 55 0;
#X connect 80 2 56 0;
#X connect 80 3 57 0;
#X connect 81 0 12 0;
#X connect 81 1 28 0;
#X connect 81 2 29 0;
#X connect 81 3 30 0;
#X connect 82 0 12 0;
#X connect 82 1 58 0;
#X connect 82 2 59 0;
#X connect 82 3 60 0;
#X connect 83 0 12 0;
#X connect 83 1 31 0;
#X connect 83 2 32 0;
#X connect 83 3 33 0;
#X connect 84 0 12 0;
#X connect 84 1 61 0;
#X connect 84 2 62 0;
#X connect 84 3 63 0;
#X connect 85 0 12 0;
#X connect 85 1 34 0;
#X connect 85 2 35 0;
#X connect 85 3 36 0;
#X connect 86 0 12 0;
#X connect 86 1 64 0;
#X connect 86 2 65 0;
#X connect 86 3 66 0;
#X connect 87 0 12 0;
#X connect 87 1 37 0;
#X connect 87 2 38 0;
#X connect 87 3 39 0;
#X connect 88 0 12 0;
#X connect 88 1 67 0;
#X connect 88 2 68 0;
#X connect 88 3 69 0;
#X connect 89 0 0 0;
#X connect 90 0 0 1;
#X connect 91 0 0 2;
#X connect 92 0 0 3;
#X connect 93 0 0 4;
#X connect 94 0 89 1;
#X connect 95 0 90 1;
#X connect 96 0 91 1;
#X connect 97 0 92 1;
#X connect 98 0 93 1;
#X connect 99 0 102 0;
#X connect 100 0 99 0;
#X connect 101 0 94 0;
#X connect 101 0 98 0;
#X connect 101 0 97 0;
#X connect 101 0 96 0;
#X connect 101 0 95 0;
#X connect 102 0 94 0;
#X connect 102 1 95 0;
#X connect 102 2 96 0;
#X connect 102 3 97 0;
#X connect 102 4 98 0;
#X connect 103 0 104 0;
#X connect 104 0 107 0;
#X connect 105 0 108 0;
#X connect 106 0 103 0;
#X connect 107 0 99 0;
#X connect 108 0 106 0;
