#N canvas 21 37 450 593 10;
#X obj 227 246 netsend -u -b;
#X msg 240 212 connect localhost 9990;
#X obj 91 166 list prepend send;
#X obj 91 195 list trim;
#X obj 240 188 loadbang;
#X obj 57 93 symbol;
#X obj 57 115 oscformat /sr_17;
#X msg 46 24 stop;
#X msg 95 24 play;
#X msg 204 40 stop_all;
#X obj 177 93 symbol;
#X obj 177 115 oscformat /stopAll;
#X obj 333 520 oscparse;
#X obj 333 458 loadbang;
#X obj 333 499 netreceive -u -b;
#X obj 333 563 print Unity;
#X msg 333 477 listen 9991;
#X obj 333 541 list trim;
#X obj 30 519 netsend -u -b;
#X obj 67 452 loadbang;
#X msg 67 476 connect localhost 9992;
#X obj 56 375 list prepend send;
#X obj 34 294 hsl 256 15 -100 100 0 0 empty empty empty -2 -8 0 10
-262144 -1 -1 0 1;
#X obj 56 344 oscformat /charPos;
#X obj 56 322 float;
#X obj 51 416 list trim;
#X connect 1 0 0 0;
#X connect 2 0 3 0;
#X connect 3 0 0 0;
#X connect 4 0 1 0;
#X connect 5 0 6 0;
#X connect 6 0 2 0;
#X connect 7 0 5 0;
#X connect 8 0 5 0;
#X connect 9 0 10 0;
#X connect 10 0 11 0;
#X connect 11 0 2 0;
#X connect 12 0 17 0;
#X connect 13 0 16 0;
#X connect 14 0 12 0;
#X connect 16 0 14 0;
#X connect 17 0 15 0;
#X connect 19 0 20 0;
#X connect 20 0 18 0;
#X connect 21 0 25 0;
#X connect 22 0 24 0;
#X connect 23 0 21 0;
#X connect 24 0 23 0;
#X connect 25 0 18 0;
