#N canvas 537 183 450 300 10;
#X obj 66 29 r unityToPd;
#X obj 65 147 s pdToUnity;
#X obj 66 76 route ping;
#X msg 51 110 pong;
#X msg 101 110 thit is not a ping;
#X connect 0 0 2 0;
#X connect 2 0 3 0;
#X connect 2 1 4 0;
#X connect 3 0 1 0;
#X connect 4 0 1 0;
